# xmcd
#
# Track frame offsets:
#	150
#	19710
#	35761
#	51518
#	71674
#	87615
#	101589
#	119419
#	134530
#	146398
#	160451
#	175885
#	198778
#	236039
#
# Disc length: 3414 seconds
#
# Revision: 0
# Processed by: cddbd v1.5.2PL0 Copyright (c) Steve Scherf et al.
# Submitted via: EasyCDDAExtractor 10.0.2.1
#
DISCID=cf0d540e
DTITLE=The Mavericks - In Time
DYEAR=2013
DGENRE=Country
TTITLE0=Back In Your Arms Again
TTITLE1=Lies
TTITLE2=Born To Be Blue
TTITLE3=Come Unto Me
TTITLE4=In Another's Arms
TTITLE5=Fall Apart
TTITLE6=All Over Again
TTITLE7=Forgive Me
TTITLE8=Amsterdam Moon
TTITLE9=That's Not My Name
TTITLE10=As Long As There's Loving Tonight
TTITLE11=Dance In The Moonlight
TTITLE12=(Call Me) When You Get To Heaven
TTITLE13=Ven Hacia Mi (Come Unto Me)
EXTD=
EXTT0=
EXTT1=
EXTT2=
EXTT3=
EXTT4=
EXTT5=
EXTT6=
EXTT7=
EXTT8=
EXTT9=
EXTT10=
EXTT11=
EXTT12=
EXTT13=
PLAYORDER=
